<?xml version="1.0" encoding="UTF-8"?> <svg xmlns="http://www.w3.org/2000/svg" width="660" height="454" viewBox="0 0 660 454" fill="none"> <path fill-rule="evenodd" clip-rule="evenodd" d="M408.149 183.369C329.516 132.7 292.401 -22.9704 171.011 70.0542C49.6226 163.076 99.9567 354.2 216.283 400.42C332.61 446.64 482.271 420.53 524.389 334.666C596.354 187.942 460.895 217.358 408.149 183.369Z" fill="url(#paint0_linear)"></path> <path fill-rule="evenodd" clip-rule="evenodd" d="M291.431 334.251H151.865C149.409 334.251 147.418 332.26 147.418 329.804V163.801C147.418 159.493 150.911 156 155.219 156H288.078C292.387 156 295.879 159.493 295.879 163.801V329.804C295.879 332.26 293.888 334.251 291.431 334.251Z" fill="#D8D8D8"></path> <path fill-rule="evenodd" clip-rule="evenodd" d="M286.228 329.017H157.069C155.077 329.017 153.463 327.402 153.463 325.411V156H289.835V325.411C289.835 327.402 288.22 329.017 286.228 329.017Z" fill="#FFFFFE"></path> <path fill-rule="evenodd" clip-rule="evenodd" d="M295.879 171.015H147.418V161.807C147.418 158.6 150.018 156 153.225 156H290.072C293.279 156 295.879 158.6 295.879 161.807V171.015Z" fill="#D8D8D8"></path> <path fill-rule="evenodd" clip-rule="evenodd" d="M153.389 282.032H289.908V217.437H153.389V282.032Z" fill="#D8D8D8"></path> <path fill-rule="evenodd" clip-rule="evenodd" d="M160.436 250.749C160.212 250.493 160.212 250.11 160.436 249.853L163.345 246.517L165.447 244.103C165.861 243.627 166.643 243.92 166.643 244.551V256.055C166.643 256.686 165.861 256.979 165.447 256.503L160.436 250.749ZM282.861 249.854C283.085 250.11 283.085 250.493 282.861 250.749L279.954 254.089L277.85 256.503C277.436 256.979 276.654 256.686 276.654 256.055V244.551C276.654 243.92 277.436 243.627 277.85 244.103L282.861 249.854Z" fill="#8DBDB1"></path> <path fill-rule="evenodd" clip-rule="evenodd" d="M197.884 260.538H175.879C174.256 260.538 172.941 259.222 172.941 257.6V229.875C172.941 228.252 174.256 226.936 175.879 226.936H197.884C199.507 226.936 200.822 228.252 200.822 229.875V257.6C200.822 259.222 199.507 260.538 197.884 260.538Z" fill="white"></path> <path fill-rule="evenodd" clip-rule="evenodd" d="M232.651 260.538H210.646C209.023 260.538 207.708 259.222 207.708 257.6V229.875C207.708 228.252 209.023 226.936 210.646 226.936H232.651C234.273 226.936 235.589 228.252 235.589 229.875V257.6C235.589 259.222 234.273 260.538 232.651 260.538Z" fill="white"></path> <path fill-rule="evenodd" clip-rule="evenodd" d="M267.418 260.538H245.413C243.79 260.538 242.474 259.222 242.474 257.6V229.875C242.474 228.252 243.79 226.936 245.413 226.936H267.418C269.041 226.936 270.356 228.252 270.356 229.875V257.6C270.356 259.222 269.041 260.538 267.418 260.538Z" fill="white"></path> <path fill-rule="evenodd" clip-rule="evenodd" d="M275.673 193.805H167.624C163.8 193.805 160.7 190.705 160.7 186.88C160.7 183.056 163.8 179.956 167.624 179.956H275.673C279.497 179.956 282.597 183.056 282.597 186.88C282.597 190.705 279.497 193.805 275.673 193.805Z" fill="#D8D8D8"></path> <path fill-rule="evenodd" clip-rule="evenodd" d="M272.647 189.071H197.435C196.225 189.071 195.244 188.09 195.244 186.88C195.244 185.67 196.225 184.689 197.435 184.689H272.647C273.857 184.689 274.839 185.67 274.839 186.88C274.839 188.09 273.857 189.071 272.647 189.071Z" fill="#FFFFFE"></path> <path fill-rule="evenodd" clip-rule="evenodd" d="M188.317 189.071H170.649C169.439 189.071 168.458 188.09 168.458 186.88C168.458 185.67 169.439 184.689 170.649 184.689H188.317C189.527 184.689 190.508 185.67 190.508 186.88C190.508 188.09 189.527 189.071 188.317 189.071Z" fill="#8DBDB1"></path> <path fill-rule="evenodd" clip-rule="evenodd" d="M199.246 270.089H174.413C173.597 270.089 172.935 269.428 172.935 268.612C172.935 267.796 173.597 267.134 174.413 267.134H199.246C200.062 267.134 200.724 267.796 200.724 268.612C200.724 269.428 200.062 270.089 199.246 270.089ZM233.609 270.089H208.776C207.96 270.089 207.299 269.428 207.299 268.612C207.299 267.796 207.96 267.134 208.776 267.134H233.609C234.426 267.134 235.087 267.796 235.087 268.612C235.087 269.428 234.426 270.089 233.609 270.089ZM268.884 270.089H244.052C243.236 270.089 242.574 269.428 242.574 268.612C242.574 267.796 243.236 267.134 244.052 267.134H268.884C269.7 267.134 270.361 267.796 270.361 268.612C270.361 269.428 269.7 270.089 268.884 270.089ZM199.246 276.1H174.413C173.597 276.1 172.935 275.438 172.935 274.622V274.617C172.935 273.801 173.597 273.139 174.413 273.139H199.246C200.062 273.139 200.724 273.801 200.724 274.617V274.622C200.724 275.438 200.062 276.1 199.246 276.1ZM233.609 276.1H208.776C207.96 276.1 207.299 275.438 207.299 274.622V274.617C207.299 273.801 207.96 273.139 208.776 273.139H233.609C234.426 273.139 235.087 273.801 235.087 274.617V274.622C235.087 275.438 234.426 276.1 233.609 276.1ZM268.884 276.1H244.052C243.236 276.1 242.574 275.438 242.574 274.622V274.617C242.574 273.801 243.236 273.139 244.052 273.139H268.884C269.7 273.139 270.361 273.801 270.361 274.617V274.622C270.361 275.438 269.7 276.1 268.884 276.1Z" fill="white"></path> <path fill-rule="evenodd" clip-rule="evenodd" d="M167.949 163.664C167.949 161.455 166.158 159.663 163.948 159.663C161.737 159.663 159.946 161.455 159.946 163.664C159.946 165.874 161.737 167.666 163.948 167.666C166.158 167.666 167.949 165.874 167.949 163.664ZM181.895 163.664C181.895 161.455 180.104 159.663 177.894 159.663C175.684 159.663 173.892 161.455 173.892 163.664C173.892 165.874 175.684 167.666 177.894 167.666C180.104 167.666 181.895 165.874 181.895 163.664ZM195.842 163.664C195.842 161.455 194.05 159.663 191.84 159.663C189.63 159.663 187.839 161.455 187.839 163.664C187.839 165.874 189.63 167.666 191.84 167.666C194.05 167.666 195.842 165.874 195.842 163.664Z" fill="#8DBDB1"></path> <path fill-rule="evenodd" clip-rule="evenodd" d="M188.17 315.83H169.4C168.168 315.83 167.168 314.831 167.168 313.599V306.798C167.168 305.565 168.168 304.566 169.4 304.566H188.17C189.403 304.566 190.402 305.565 190.402 306.798V313.599C190.402 314.831 189.403 315.83 188.17 315.83Z" fill="#D8D8D8"></path> <path fill-rule="evenodd" clip-rule="evenodd" d="M188.878 301.217H168.692C167.874 301.217 167.212 300.555 167.212 299.738C167.212 298.92 167.874 298.257 168.692 298.257H188.878C189.696 298.257 190.358 298.92 190.358 299.738C190.358 300.555 189.696 301.217 188.878 301.217Z" fill="#D8D8D8"></path> <path fill-rule="evenodd" clip-rule="evenodd" d="M216.746 315.83H197.975C196.743 315.83 195.743 314.831 195.743 313.599V306.798C195.743 305.565 196.743 304.566 197.975 304.566H216.746C217.978 304.566 218.978 305.565 218.978 306.798V313.599C218.978 314.831 217.978 315.83 216.746 315.83Z" fill="#D8D8D8"></path> <path fill-rule="evenodd" clip-rule="evenodd" d="M217.453 301.217H197.267C196.45 301.217 195.787 300.555 195.787 299.738C195.787 298.92 196.45 298.257 197.267 298.257H217.453C218.271 298.257 218.934 298.92 218.934 299.738C218.934 300.555 218.271 301.217 217.453 301.217Z" fill="#D8D8D8"></path> <path fill-rule="evenodd" clip-rule="evenodd" d="M245.319 315.83H226.553C225.319 315.83 224.32 314.831 224.32 313.599V306.798C224.32 305.565 225.319 304.566 226.553 304.566H245.319C246.553 304.566 247.552 305.565 247.552 306.798V313.599C247.552 314.831 246.553 315.83 245.319 315.83Z" fill="#D8D8D8"></path> <path fill-rule="evenodd" clip-rule="evenodd" d="M246.029 301.217H225.843C225.025 301.217 224.363 300.555 224.363 299.738C224.363 298.92 225.025 298.257 225.843 298.257H246.029C246.847 298.257 247.51 298.92 247.51 299.738C247.51 300.555 246.847 301.217 246.029 301.217Z" fill="#D8D8D8"></path> <path fill-rule="evenodd" clip-rule="evenodd" d="M273.896 315.83H255.126C253.893 315.83 252.894 314.831 252.894 313.599V306.798C252.894 305.565 253.893 304.566 255.126 304.566H273.896C275.13 304.566 276.129 305.565 276.129 306.798V313.599C276.129 314.831 275.13 315.83 273.896 315.83Z" fill="#D8D8D8"></path> <path fill-rule="evenodd" clip-rule="evenodd" d="M274.604 301.217H254.418C253.6 301.217 252.938 300.555 252.938 299.738C252.938 298.92 253.6 298.257 254.418 298.257H274.604C275.422 298.257 276.085 298.92 276.085 299.738C276.085 300.555 275.422 301.217 274.604 301.217Z" fill="#D8D8D8"></path> <path fill-rule="evenodd" clip-rule="evenodd" d="M380.019 354.661H208.813C205.8 354.661 203.357 352.219 203.357 349.206V145.569C203.357 140.285 207.642 136 212.927 136H375.906C381.192 136 385.475 140.285 385.475 145.569V349.206C385.475 352.219 383.033 354.661 380.019 354.661Z" fill="#EC6165"></path> <path fill-rule="evenodd" clip-rule="evenodd" d="M373.636 348.241H215.196C212.752 348.241 210.772 346.26 210.772 343.817V136H378.061V343.817C378.061 346.26 376.08 348.241 373.636 348.241Z" fill="#FFFFFE"></path> <path fill-rule="evenodd" clip-rule="evenodd" d="M385.475 154.419H203.357V143.123C203.357 139.189 206.547 136 210.481 136H378.352C382.286 136 385.475 139.189 385.475 143.123V154.419Z" fill="#8DBDB1"></path> <path fill-rule="evenodd" clip-rule="evenodd" d="M210.682 290.604H378.151V211.365H210.682V290.604Z" fill="#F0B56F"></path> <path fill-rule="evenodd" clip-rule="evenodd" d="M219.327 252.229C219.052 251.915 219.052 251.445 219.327 251.13L222.895 247.037L225.474 244.076C225.982 243.492 226.941 243.852 226.941 244.626V258.738C226.941 259.512 225.982 259.871 225.474 259.287L219.327 252.229ZM369.506 251.131C369.781 251.445 369.781 251.915 369.506 252.229L365.94 256.326L363.359 259.287C362.851 259.871 361.892 259.512 361.892 258.738V244.626C361.892 243.852 362.851 243.492 363.359 244.076L369.506 251.131Z" fill="#5C4C52"></path> <path fill-rule="evenodd" clip-rule="evenodd" d="M265.264 264.237H238.271C236.28 264.237 234.667 262.623 234.667 260.633V226.623C234.667 224.632 236.28 223.017 238.271 223.017H265.264C267.255 223.017 268.868 224.632 268.868 226.623V260.633C268.868 262.623 267.255 264.237 265.264 264.237Z" fill="white"></path> <path fill-rule="evenodd" clip-rule="evenodd" d="M307.913 264.237H280.919C278.929 264.237 277.315 262.623 277.315 260.633V226.623C277.315 224.632 278.929 223.017 280.919 223.017H307.913C309.903 223.017 311.517 224.632 311.517 226.623V260.633C311.517 262.623 309.903 264.237 307.913 264.237Z" fill="white"></path> <path fill-rule="evenodd" clip-rule="evenodd" d="M350.562 264.237H323.569C321.578 264.237 319.963 262.623 319.963 260.633V226.623C319.963 224.632 321.578 223.017 323.569 223.017H350.562C352.553 223.017 354.166 224.632 354.166 226.623V260.633C354.166 262.623 352.553 264.237 350.562 264.237Z" fill="white"></path> <path fill-rule="evenodd" clip-rule="evenodd" d="M360.688 182.375H228.144C223.453 182.375 219.65 178.573 219.65 173.88C219.65 169.19 223.453 165.387 228.144 165.387H360.688C365.379 165.387 369.182 169.19 369.182 173.88C369.182 178.573 365.379 182.375 360.688 182.375Z" fill="#5C4C52"></path> <path fill-rule="evenodd" clip-rule="evenodd" d="M356.977 176.568H264.714C263.229 176.568 262.026 175.365 262.026 173.88C262.026 172.396 263.229 171.193 264.714 171.193H356.977C358.461 171.193 359.666 172.396 359.666 173.88C359.666 175.365 358.461 176.568 356.977 176.568Z" fill="#FFFFFE"></path> <path fill-rule="evenodd" clip-rule="evenodd" d="M253.528 176.568H231.855C230.37 176.568 229.167 175.365 229.167 173.88C229.167 172.396 230.37 171.193 231.855 171.193H253.528C255.012 171.193 256.216 172.396 256.216 173.88C256.216 175.365 255.012 176.568 253.528 176.568Z" fill="#8DBDB1"></path> <path fill-rule="evenodd" clip-rule="evenodd" d="M266.935 275.954H236.472C235.471 275.954 234.659 275.143 234.659 274.142C234.659 273.141 235.471 272.329 236.472 272.329H266.935C267.936 272.329 268.748 273.141 268.748 274.142C268.748 275.143 267.936 275.954 266.935 275.954ZM309.088 275.954H278.626C277.625 275.954 276.814 275.143 276.814 274.142C276.814 273.141 277.625 272.329 278.626 272.329H309.088C310.091 272.329 310.901 273.141 310.901 274.142C310.901 275.143 310.091 275.954 309.088 275.954ZM352.36 275.954H321.899C320.898 275.954 320.086 275.143 320.086 274.142C320.086 273.141 320.898 272.329 321.899 272.329H352.36C353.361 272.329 354.172 273.141 354.172 274.142C354.172 275.143 353.361 275.954 352.36 275.954ZM266.935 283.327H236.472C235.471 283.327 234.659 282.515 234.659 281.514V281.508C234.659 280.507 235.471 279.695 236.472 279.695H266.935C267.936 279.695 268.748 280.507 268.748 281.508V281.514C268.748 282.515 267.936 283.327 266.935 283.327ZM309.088 283.327H278.626C277.625 283.327 276.814 282.515 276.814 281.514V281.508C276.814 280.507 277.625 279.695 278.626 279.695H309.088C310.091 279.695 310.901 280.507 310.901 281.508V281.514C310.901 282.515 310.091 283.327 309.088 283.327ZM352.36 283.327H321.899C320.898 283.327 320.086 282.515 320.086 281.514V281.508C320.086 280.507 320.898 279.695 321.899 279.695H352.36C353.361 279.695 354.172 280.507 354.172 281.508V281.514C354.172 282.515 353.361 283.327 352.36 283.327Z" fill="white"></path> <path fill-rule="evenodd" clip-rule="evenodd" d="M228.542 145.401C228.542 142.691 226.345 140.493 223.634 140.493C220.922 140.493 218.725 142.691 218.725 145.401C218.725 148.112 220.922 150.311 223.634 150.311C226.345 150.311 228.542 148.112 228.542 145.401ZM245.65 145.401C245.65 142.691 243.453 140.493 240.742 140.493C238.031 140.493 235.833 142.691 235.833 145.401C235.833 148.112 238.031 150.311 240.742 150.311C243.453 150.311 245.65 148.112 245.65 145.401ZM262.759 145.401C262.759 142.691 260.561 140.493 257.85 140.493C255.139 140.493 252.942 142.691 252.942 145.401C252.942 148.112 255.139 150.311 257.85 150.311C260.561 150.311 262.759 148.112 262.759 145.401Z" fill="white"></path> <path fill-rule="evenodd" clip-rule="evenodd" d="M253.348 332.064H230.322C228.811 332.064 227.584 330.839 227.584 329.327V320.985C227.584 319.472 228.811 318.247 230.322 318.247H253.348C254.86 318.247 256.086 319.472 256.086 320.985V329.327C256.086 330.839 254.86 332.064 253.348 332.064Z" fill="#EC6165"></path> <path fill-rule="evenodd" clip-rule="evenodd" d="M254.216 314.138H229.454C228.451 314.138 227.639 313.326 227.639 312.324C227.639 311.321 228.451 310.507 229.454 310.507H254.216C255.22 310.507 256.032 311.321 256.032 312.324C256.032 313.326 255.22 314.138 254.216 314.138Z" fill="#5C4C52"></path> <path fill-rule="evenodd" clip-rule="evenodd" d="M288.403 332.064H265.376C263.865 332.064 262.638 330.839 262.638 329.327V320.985C262.638 319.472 263.865 318.247 265.376 318.247H288.403C289.914 318.247 291.141 319.472 291.141 320.985V329.327C291.141 330.839 289.914 332.064 288.403 332.064Z" fill="#EC6165"></path> <path fill-rule="evenodd" clip-rule="evenodd" d="M289.27 314.138H264.507C263.505 314.138 262.692 313.326 262.692 312.324C262.692 311.321 263.505 310.507 264.507 310.507H289.27C290.273 310.507 291.086 311.321 291.086 312.324C291.086 313.326 290.273 314.138 289.27 314.138Z" fill="#5C4C52"></path> <path fill-rule="evenodd" clip-rule="evenodd" d="M323.453 332.064H300.433C298.919 332.064 297.693 330.839 297.693 329.327V320.985C297.693 319.472 298.919 318.247 300.433 318.247H323.453C324.967 318.247 326.192 319.472 326.192 320.985V329.327C326.192 330.839 324.967 332.064 323.453 332.064Z" fill="#EC6165"></path> <path fill-rule="evenodd" clip-rule="evenodd" d="M324.324 314.138H299.562C298.558 314.138 297.746 313.326 297.746 312.324C297.746 311.321 298.558 310.507 299.562 310.507H324.324C325.327 310.507 326.141 311.321 326.141 312.324C326.141 313.326 325.327 314.138 324.324 314.138Z" fill="#5C4C52"></path> <path fill-rule="evenodd" clip-rule="evenodd" d="M358.508 332.064H335.483C333.971 332.064 332.745 330.839 332.745 329.327V320.985C332.745 319.472 333.971 318.247 335.483 318.247H358.508C360.022 318.247 361.248 319.472 361.248 320.985V329.327C361.248 330.839 360.022 332.064 358.508 332.064Z" fill="#EC6165"></path> <path fill-rule="evenodd" clip-rule="evenodd" d="M359.377 314.138H334.615C333.611 314.138 332.799 313.326 332.799 312.324C332.799 311.321 333.611 310.507 334.615 310.507H359.377C360.381 310.507 361.194 311.321 361.194 312.324C361.194 313.326 360.381 314.138 359.377 314.138Z" fill="#5C4C52"></path> <path d="M294.5 67.5H332H358.5C364.5 67.5 372 67.8 372 59C372 50.2 365.333 49.3333 362 50C361 44 351.5 41 347.5 43.5C347.5 35 341.5 26 330 26C318.5 26 312.5 34 312.5 43.5C298 41.5 296 52 296 56C294.5 56 290 56.5 290 61.5C290 65.5 293 67.1667 294.5 67.5Z" fill="#8DBDB1"></path> <path d="M197.402 108.999H225.756H245.793C250.329 108.999 256 109.23 256 102.445C256 95.6597 250.959 94.9914 248.439 95.5055C247.683 90.8791 240.5 88.5659 237.476 90.4936C237.476 83.9396 232.939 77 224.244 77C215.549 77 211.012 83.1685 211.012 90.4936C200.049 88.9515 198.537 97.0476 198.537 100.132C197.402 100.132 194 100.517 194 104.373C194 107.457 196.268 108.742 197.402 108.999Z" fill="white"></path> <path d="M411.073 106.999H436.683H454.78C458.878 106.999 464 107.209 464 101.06C464 94.9103 459.447 94.3047 457.171 94.7706C456.488 90.5779 450 88.4816 447.268 90.2286C447.268 84.289 443.171 78 435.317 78C427.463 78 423.366 83.5902 423.366 90.2286C413.463 88.831 412.098 96.1681 412.098 98.9632C411.073 98.9632 408 99.3126 408 102.807C408 105.602 410.049 106.766 411.073 106.999Z" stroke="#8DBDB1" stroke-width="2"></path> <path fill-rule="evenodd" clip-rule="evenodd" d="M485.025 166.506C485.025 166.506 506.395 159.16 517.621 179.618C518.274 180.809 518.99 181.952 519.857 182.992C522.138 185.715 526.893 190.728 532.131 192.355C552.929 198.808 566.09 238.566 524.695 242.102C472.89 246.534 458.181 236.204 465.592 215.322C470.877 200.433 466.156 189.862 466.156 189.862L485.025 166.506Z" fill="#F0B56F"></path> <mask id="mask0" maskUnits="userSpaceOnUse" x="463" y="165" width="89" height="79"> <path fill-rule="evenodd" clip-rule="evenodd" d="M485.025 166.506C485.025 166.506 506.395 159.16 517.621 179.618C518.274 180.809 518.99 181.952 519.857 182.992C522.138 185.715 526.893 190.728 532.131 192.355C552.929 198.808 566.09 238.566 524.695 242.102C472.89 246.534 458.181 236.204 465.592 215.322C470.877 200.433 466.156 189.862 466.156 189.862L485.025 166.506Z" fill="#F0B56F"></path> </mask> <g mask="url(#mask0)"> <path d="M538.081 240.951C542.12 208.063 517.646 194.552 504.905 191.908C492.163 199.12 465.093 214.698 458.747 219.314C450.813 225.084 452.977 226.526 450.813 234.46C448.649 242.393 465.959 261.866 468.844 264.751C471.729 267.636 533.033 282.061 538.081 240.951Z" fill="#E9AC65"></path> </g> <path d="M550.048 245.303C545.131 239.771 534.341 235.486 529.56 234.035C527.255 241.632 523.67 256.623 527.767 255.803C532.889 254.779 540.316 259.389 549.28 268.096C556.451 275.062 565.415 272.535 569 270.401C564.732 264.34 554.966 250.835 550.048 245.303Z" fill="#D8D8D8"></path> <path d="M501.133 346.464C503.95 338.866 509.533 321.212 509.328 311.378C509.127 301.734 503.984 289.825 501.29 284.778L483.206 284.487C479.193 287.731 472.961 295.038 480.132 298.317C489.096 302.414 493.194 314.195 491.145 328.024C489.506 339.088 497.12 344.927 501.133 346.464Z" fill="#D8D8D8"></path> <path d="M410.216 253.754C430.5 236.339 441.546 253.669 444.534 264.511C445.132 267.925 445.354 274.14 441.461 271.681C436.595 268.608 423.79 275.779 433.266 289.865C448.427 310.148 445.046 326.658 441.461 332.378C441.461 327.256 437.005 315.321 419.18 308.56C396.899 300.109 384.862 275.523 410.216 253.754Z" fill="#F0B56F"></path> <mask id="mask1" maskUnits="userSpaceOnUse" x="396" y="246" width="49" height="87"> <path d="M410.216 253.754C430.5 236.339 441.546 253.669 444.534 264.511C445.132 267.925 445.354 274.14 441.461 271.681C436.595 268.608 423.79 275.779 433.266 289.865C448.427 310.148 445.046 326.658 441.461 332.378C441.461 327.256 437.005 315.321 419.18 308.56C396.899 300.109 384.862 275.523 410.216 253.754Z" fill="#F0B56F"></path> </mask> <g mask="url(#mask1)"> <path d="M416.915 280.618C419.223 263.309 434.705 268.598 442.158 273.406L448.649 314.516C437.11 310.429 414.607 297.928 416.915 280.618Z" fill="#E9AC65"></path> </g> <path d="M531.353 243.511C531.353 226.096 517.182 211.327 510.096 206.12L487.559 231.218C487.815 236.596 485.049 247.711 471.937 249.145C455.546 250.938 449.656 254.267 441.461 267.84C434.904 278.699 443.509 295.585 448.632 302.67C450.595 308.134 454.522 320.085 454.522 324.183C454.522 329.305 453.241 335.452 447.863 348.513C444.995 359.577 451.107 363.025 454.522 363.367C457.851 357.647 466.098 343.596 472.449 333.147C480.388 320.085 479.62 305.488 479.364 298.829C482.693 298.317 503.694 286.536 508.56 280.133C516.499 283.975 521.877 296.012 526.999 307.793C531.097 317.217 538.268 316.159 541.341 314.451C540.658 310.524 538.831 299.7 536.987 287.816C534.682 272.963 531.353 264.511 526.231 259.645C529.048 256.572 531.353 248.889 531.353 243.511Z" fill="white"></path> <mask id="mask2" maskUnits="userSpaceOnUse" x="439" y="206" width="130" height="158"> <path d="M531.352 243.51C531.352 226.095 517.181 211.327 510.096 206.119L487.558 231.217C487.815 236.596 485.049 247.711 471.936 249.145C455.546 250.937 449.655 254.267 441.46 267.84C434.904 278.699 443.509 295.585 448.631 302.67C450.594 308.134 454.521 320.085 454.521 324.183C454.521 329.305 453.241 335.451 447.863 348.513C444.994 359.576 451.106 363.025 454.521 363.367C457.851 357.647 466.097 343.595 472.448 333.146C480.388 320.085 479.619 305.487 479.363 298.829C482.693 298.316 503.693 286.536 508.559 280.133C516.498 283.975 521.876 296.012 526.998 307.792C531.096 317.217 538.267 316.158 541.34 314.451C540.657 310.524 538.83 299.699 536.986 287.816C534.681 272.962 531.352 264.511 526.23 259.645C529.047 256.572 531.352 248.889 531.352 243.51Z" fill="#D8D8D8"></path> <path d="M550.048 245.303C545.131 239.771 534.34 235.486 529.56 234.034C527.255 241.632 523.669 256.623 527.767 255.803C532.889 254.779 540.316 259.389 549.28 268.096C556.45 275.062 565.414 272.535 568.999 270.401C564.731 264.34 554.965 250.835 550.048 245.303Z" fill="#D8D8D8"></path> <path d="M501.132 346.464C503.949 338.866 509.532 321.212 509.327 311.378C509.127 301.734 503.984 289.824 501.289 284.778L483.205 284.487C479.193 287.731 472.961 295.038 480.132 298.316C489.095 302.414 493.193 314.195 491.144 328.024C489.505 339.088 497.12 344.927 501.132 346.464Z" fill="#D8D8D8"></path> </mask> <g mask="url(#mask2)"> <path d="M446.485 346.25C449.947 356.058 456.582 357.549 459.467 357.068V367.165C459.467 371.492 455.14 368.608 451.534 370.05C448.649 371.204 445.524 368.608 444.322 367.165C443.6 356.106 443.023 336.441 446.485 346.25Z" fill="#8DBDB1"></path> <path d="M490.48 331.825C495.673 339.326 502.741 338.797 505.626 337.595C506.106 340.48 507.212 347.692 507.789 353.462C508.511 360.674 502.02 353.462 492.644 351.298C485.143 349.567 484.71 345.769 485.431 344.086C484.951 336.874 485.287 324.325 490.48 331.825Z" fill="#8DBDB1"></path> <path d="M525.82 307.303C536.783 311.342 541.206 309.708 541.687 308.025C542.648 309.948 544.716 314.948 545.293 316.679C546.014 318.843 544.572 320.285 543.129 321.728C541.687 323.17 530.147 319.564 528.705 318.122C527.262 316.679 512.117 302.255 525.82 307.303Z" fill="#8DBDB1"></path> <path d="M550.342 271.242C561.881 268.934 565.247 264.751 565.487 263.309C566.93 264.511 571.834 269.079 574.142 271.964C577.027 275.57 572.699 273.406 569.093 274.127C565.487 274.848 559.717 277.012 556.833 277.733C553.948 278.455 535.917 274.127 550.342 271.242Z" fill="#8DBDB1"></path> </g> <mask id="mask3" maskUnits="userSpaceOnUse" x="439" y="206" width="103" height="158"> <path d="M531.353 243.511C531.353 226.096 517.182 211.327 510.096 206.12L487.559 231.218C487.815 236.596 485.049 247.711 471.937 249.145C455.546 250.938 449.656 254.267 441.461 267.84C434.904 278.699 443.509 295.585 448.632 302.67C450.595 308.134 454.522 320.085 454.522 324.183C454.522 329.305 453.241 335.452 447.863 348.513C444.995 359.577 451.107 363.025 454.522 363.367C457.851 357.647 466.098 343.596 472.449 333.147C480.388 320.085 479.62 305.488 479.364 298.829C482.693 298.317 503.694 286.536 508.56 280.133C516.499 283.975 521.877 296.012 526.999 307.793C531.097 317.217 538.268 316.159 541.341 314.451C540.658 310.524 538.831 299.7 536.987 287.816C534.682 272.963 531.353 264.511 526.231 259.645C529.048 256.572 531.353 248.889 531.353 243.511Z" fill="white"></path> </mask> <g mask="url(#mask3)"> <path d="M522.032 195.184C522.032 186.989 519.642 181.013 518.447 179.049C499.598 161.225 482.08 177.086 475.678 187.245C475.421 190.745 475.217 199.896 476.446 208.501C468.251 209.014 459.287 233.599 485.922 233.599C512.556 233.599 522.032 205.428 522.032 195.184Z" fill="#D8D8D8"></path> </g> <path d="M512.401 195.619C512.401 187.424 510.011 181.448 508.815 179.485C489.966 161.66 472.449 177.521 466.046 187.68C465.79 191.18 465.585 200.331 466.815 208.936C458.619 209.449 449.656 234.034 476.29 234.034C502.925 234.034 512.401 205.863 512.401 195.619Z" fill="white"></path> <path fill-rule="evenodd" clip-rule="evenodd" d="M514.281 184.076L515.723 193.35C515.723 193.35 507.282 194.051 506.15 185.09C505.186 177.497 499.835 178.815 499.835 178.815C499.835 178.815 475.725 201.754 464.954 191.953C456.452 184.215 470.193 170.058 485.912 166.665L509.953 173.156L514.281 184.076Z" fill="#F0B56F"></path> <path d="M504.462 184.607C513.477 177.436 511.803 164.887 509.84 159.509C499.34 165.399 497.291 171.29 496.523 173.082C495.754 174.875 493.193 193.57 504.462 184.607Z" fill="white"></path> <path d="M446.839 146.191C449.707 148.035 472.961 165.058 484.23 173.338C486.484 180.509 480.218 183.156 476.803 183.582C474.242 181.79 445.558 149.009 444.534 147.216C443.509 145.423 443.253 143.886 446.839 146.191Z" fill="#8DBDB1"></path> <mask id="mask4" maskUnits="userSpaceOnUse" x="443" y="145" width="42" height="39"> <path d="M446.839 146.191C449.707 148.035 472.961 165.058 484.23 173.338C486.484 180.509 480.218 183.156 476.803 183.582C474.242 181.79 445.558 149.009 444.534 147.216C443.509 145.423 443.253 143.886 446.839 146.191Z" fill="#8DBDB1"></path> </mask> <g mask="url(#mask4)"> <path d="M463.795 178.926L458.025 150.077H463.795L470.286 181.811L463.795 178.926Z" fill="#7CABA0"></path> </g> <path d="M468.122 220.757C468.122 221.952 467.476 222.92 466.68 222.92C465.883 222.92 465.237 221.952 465.237 220.757C465.237 219.562 465.883 218.593 466.68 218.593C467.476 218.593 468.122 219.562 468.122 220.757Z" fill="#D8D8D8"></path> <path d="M476.777 220.757C476.777 221.952 476.131 222.92 475.334 222.92C474.538 222.92 473.892 221.952 473.892 220.757C473.892 219.562 474.538 218.593 475.334 218.593C476.131 218.593 476.777 219.562 476.777 220.757Z" fill="#D8D8D8"></path> <circle cx="457.304" cy="269.8" r="6.49101" fill="#D8D8D8"></circle> <circle cx="450.813" cy="280.619" r="2.88489" fill="#D8D8D8"></circle> <circle cx="460.189" cy="281.34" r="2.16367" fill="#D8D8D8"></circle> <path fill-rule="evenodd" clip-rule="evenodd" d="M422.349 209.893L421.135 206L419.924 209.893C418.9 213.176 416.467 215.947 413.18 217.584C416.467 219.22 418.9 221.992 419.924 225.275L421.135 229.171L422.349 225.275C423.373 221.992 425.803 219.22 429.093 217.584C425.803 215.947 423.373 213.176 422.349 209.893ZM361.17 379.255L359.956 375.359L358.743 379.255C357.72 382.536 355.289 385.305 352 386.944C355.289 388.578 357.72 391.353 358.743 394.634L359.956 398.53L361.17 394.634C362.191 391.353 364.62 388.578 367.913 386.944C364.62 385.305 362.191 382.536 361.17 379.255ZM305.096 375.95L304.215 373.518L303.331 375.95C302.587 378 300.821 379.734 298.427 380.756C300.821 381.782 302.587 383.512 303.331 385.566L304.215 388L305.096 385.566C305.839 383.512 307.606 381.782 310 380.756C307.606 379.734 305.839 378 305.096 375.95ZM406.043 344L405.159 341.564L404.278 344C403.534 346.051 401.766 347.784 399.374 348.806C401.766 349.829 403.534 351.559 404.278 353.613L405.159 356.046L406.043 353.613C406.787 351.559 408.555 349.829 410.947 348.806C408.555 347.784 406.787 346.051 406.043 344Z" fill="#FFFFFE"></path> <defs> <linearGradient id="paint0_linear" x1="323.991" y1="87.7759" x2="320.01" y2="590.201" gradientUnits="userSpaceOnUse"> <stop stop-color="#EC6165"></stop> <stop offset="1" stop-color="#F0B56F"></stop> </linearGradient> </defs> </svg> 